<svg width="484" height="129" viewBox="0 0 484 129" fill="none" xmlns="http://www.w3.org/2000/svg">
<rect width="484" height="129" fill="black"/>
<path d="M24 18H37.968V101.664H83.904V111.456H24V18Z" fill="#6D97E5"/>
<path d="M154.896 73.728L121.056 18H137.04L161.952 61.92L186.864 18H202.848L168.864 73.296V111.456H154.896V73.728Z" fill="#6D97E5"/>
<path d="M370.267 18H384.811L414.763 98.208H416.059L446.011 18H459.835L422.683 111.456H406.555L370.267 18Z" fill="#6D97E5"/>
<circle cx="282.974" cy="64.5" r="45" stroke="#6D97E5" stroke-width="3"/>
<mask id="path-3-inside-1_3_21" fill="white">
<path fill-rule="evenodd" clip-rule="evenodd" d="M271.782 53.3074L238.965 64.9079L271.782 76.5084L283.382 109.325L294.983 76.5084L327.8 64.9079L294.983 53.3074L283.382 20.4904L271.782 53.3074ZM283.382 75.9211C289.465 75.9211 294.395 70.9903 294.395 64.9079C294.395 58.8255 289.465 53.8948 283.382 53.8948C277.3 53.8948 272.369 58.8255 272.369 64.9079C272.369 70.9903 277.3 75.9211 283.382 75.9211Z"/>
</mask>
<path fill-rule="evenodd" clip-rule="evenodd" d="M271.782 53.3074L238.965 64.9079L271.782 76.5084L283.382 109.325L294.983 76.5084L327.8 64.9079L294.983 53.3074L283.382 20.4904L271.782 53.3074ZM283.382 75.9211C289.465 75.9211 294.395 70.9903 294.395 64.9079C294.395 58.8255 289.465 53.8948 283.382 53.8948C277.3 53.8948 272.369 58.8255 272.369 64.9079C272.369 70.9903 277.3 75.9211 283.382 75.9211Z" fill="#6D97E5"/>
<path d="M238.965 64.9079L238.631 63.9651L235.964 64.9079L238.631 65.8507L238.965 64.9079ZM271.782 53.3074L272.115 54.2502L272.565 54.091L272.725 53.6407L271.782 53.3074ZM271.782 76.5084L272.725 76.1751L272.565 75.7248L272.115 75.5656L271.782 76.5084ZM283.382 109.325L282.439 109.659L283.382 112.326L284.325 109.659L283.382 109.325ZM294.983 76.5084L294.649 75.5656L294.199 75.7248L294.04 76.1751L294.983 76.5084ZM327.8 64.9079L328.133 65.8507L330.8 64.9079L328.133 63.9651L327.8 64.9079ZM294.983 53.3074L294.04 53.6407L294.199 54.091L294.649 54.2502L294.983 53.3074ZM283.382 20.4904L284.325 20.1572L283.382 17.49L282.439 20.1572L283.382 20.4904ZM239.298 65.8507L272.115 54.2502L271.448 52.3645L238.631 63.9651L239.298 65.8507ZM272.115 75.5656L239.298 63.9651L238.631 65.8507L271.448 77.4513L272.115 75.5656ZM284.325 108.992L272.725 76.1751L270.839 76.8417L282.439 109.659L284.325 108.992ZM294.04 76.1751L282.439 108.992L284.325 109.659L295.926 76.8417L294.04 76.1751ZM327.466 63.9651L294.649 75.5656L295.316 77.4512L328.133 65.8507L327.466 63.9651ZM294.649 54.2502L327.466 65.8507L328.133 63.9651L295.316 52.3645L294.649 54.2502ZM282.439 20.8237L294.04 53.6407L295.926 52.9741L284.325 20.1572L282.439 20.8237ZM272.725 53.6407L284.325 20.8237L282.439 20.1572L270.839 52.9741L272.725 53.6407ZM293.395 64.9079C293.395 70.438 288.912 74.9211 283.382 74.9211V76.9211C290.017 76.9211 295.395 71.5426 295.395 64.9079H293.395ZM283.382 54.8947C288.912 54.8947 293.395 59.3778 293.395 64.9079H295.395C295.395 58.2732 290.017 52.8947 283.382 52.8947V54.8947ZM273.369 64.9079C273.369 59.3778 277.852 54.8947 283.382 54.8947V52.8947C276.748 52.8947 271.369 58.2732 271.369 64.9079H273.369ZM283.382 74.9211C277.852 74.9211 273.369 70.438 273.369 64.9079H271.369C271.369 71.5426 276.748 76.9211 283.382 76.9211V74.9211Z" fill="#6D97E5" mask="url(#path-3-inside-1_3_21)"/>
</svg>
